<?xml version="1.0" encoding="UTF-8"?>
<svg width="1200pt" height="1200pt" version="1.1" viewBox="0 0 1200 1200" xmlns="http://www.w3.org/2000/svg">
 <g>
  <rect width="1200" height="1200" fill="#fff"/>
  <path d="m737.54 485.89-179.11 179.1-80.863-80.859c-12.09-12.09-30.984-12.09-43.074 0-12.09 12.09-12.09 30.984 0 43.074l102.02 102.02c6.0469 6.0469 13.602 9.0703 21.16 9.0703 7.5586 0 15.113-3.0234 21.16-9.0703l200.27-200.27c12.09-12.09 12.09-30.984 0-43.074-10.578-11.332-30.227-11.332-41.562 0.003906z"/>
  <path d="m615.12 275.04c-179.11 0-324.96 145.86-324.96 324.96 0 179.11 145.85 324.96 324.96 324.96 142.07 0 266.77-90.688 309.84-225.96 5.2891-15.871-3.7773-33.25-19.648-37.785-15.871-5.2891-33.25 3.7773-37.785 19.648-35.52 109.58-136.79 183.64-252.41 183.64-145.85 0-264.5-118.65-264.5-264.5s118.65-264.5 264.5-264.5c145.85 0 264.5 118.65 264.5 264.5 0 16.625 13.602 30.23 30.23 30.23 16.625 0 30.23-13.602 30.23-30.23-0.003906-179.1-145.86-324.96-324.96-324.96z"/>
 </g>
</svg>
